<?xml version="1.0" encoding="utf-8"?>
<!-- Uploaded to: SVG Repo, www.svgrepo.com, Generator: SVG Repo Mixer Tools -->
<svg width="50%" height="50%" viewBox="0 0 32 32" version="1.1" xmlns="http://www.w3.org/2000/svg">
  <defs>
    <linearGradient id="gradient" x1="50%" y1="0%" x2="100%" y2="0%">
      <stop offset="0%" stop-color="#9bdceb"/>
      <stop offset="50%" stop-color="#5acee8"/>
      <stop offset="100%" stop-color="#31c0e0"/>
    </linearGradient>
  </defs>
  <title>folders</title>
  <path d="M0 26.016q0 2.496 1.76 4.256t4.256 1.76h13.984q2.496 0 4.256-1.76t1.76-4.256v-10.016q0-2.464-1.76-4.224t-4.256-1.76h-6.368q-0.608-1.76-2.144-2.88t-3.488-1.12h-1.984q-2.496 0-4.256 1.76t-1.76 4.224v14.016zM4 26.016v-14.016q0-0.832 0.576-1.408t1.44-0.576h1.984q0.832 0 1.408 0.576t0.608 1.408v2.016h9.984q0.832 0 1.408 0.576t0.608 1.408v10.016q0 0.832-0.608 1.408t-1.408 0.576h-13.984q-0.832 0-1.44-0.576t-0.576-1.408zM6.368 4h3.648q1.92 0 3.456 1.12t2.176 2.88h6.368q2.464 0 4.224 1.76t1.76 4.256v11.648q1.76-0.64 2.88-2.176t1.12-3.488v-9.984q0-2.496-1.76-4.256t-4.224-1.76h-6.368q-0.64-1.76-2.176-2.88t-3.456-1.12h-2.016q-1.92 0-3.456 1.12t-2.176 2.88z" fill="url(#gradient)"></path>
</svg>